<?xml version="1.0" encoding="UTF-8" standalone="no"?>
<!-- Created with Inkscape (http://www.inkscape.org/) -->

<svg
   width="512"
   height="512"
   viewBox="0 0 512 512"
   version="1.1"
   id="svg1"
   xml:space="preserve"
   inkscape:version="1.4 (86a8ad7, 2024-10-11)"
   sodipodi:docname="icon.svg"
   xmlns:inkscape="http://www.inkscape.org/namespaces/inkscape"
   xmlns:sodipodi="http://sodipodi.sourceforge.net/DTD/sodipodi-0.dtd"
   xmlns:xlink="http://www.w3.org/1999/xlink"
   xmlns="http://www.w3.org/2000/svg"
   xmlns:svg="http://www.w3.org/2000/svg"
   xmlns:rdf="http://www.w3.org/1999/02/22-rdf-syntax-ns#"
   xmlns:cc="http://creativecommons.org/ns#"
   xmlns:dc="http://purl.org/dc/elements/1.1/"><title
     id="title2">la32r-instr-stats icon</title><sodipodi:namedview
     id="namedview1"
     pagecolor="#505050"
     bordercolor="#ffffff"
     borderopacity="1"
     inkscape:showpageshadow="0"
     inkscape:pageopacity="0"
     inkscape:pagecheckerboard="true"
     inkscape:deskcolor="#d1d1d1"
     inkscape:document-units="px"
     showborder="true"
     inkscape:current-layer="layer1" /><defs
     id="defs1"><color-profile
       name="sRGB-IEC61966-2.1"
       xlink:href="file:///C:/WINDOWS/system32/spool/drivers/color/sRGB%20Color%20Space%20Profile.icm"
       id="color-profile1" /></defs><g
     inkscape:label="Layer 1"
     inkscape:groupmode="layer"
     id="layer1"><rect
       style="fill:#ffff00;stroke-width:0.3;fill-opacity:1"
       id="rect2"
       width="512"
       height="512"
       x="-1.0279484"
       y="0" /><text
       xml:space="preserve"
       style="font-style:normal;font-variant:normal;font-weight:normal;font-stretch:normal;font-size:96px;font-family:'Lucida Console';-inkscape-font-specification:'Lucida Console, Normal';font-variant-ligatures:normal;font-variant-caps:normal;font-variant-numeric:normal;font-variant-east-asian:normal;text-align:start;writing-mode:lr-tb;direction:ltr;text-anchor:start;fill:#000000;fill-opacity:1;stroke:#000000;stroke-width:6;stroke-opacity:1;stroke-dasharray:none"
       x="23.816713"
       y="477.80865"
       id="text2"><tspan
         sodipodi:role="line"
         id="tspan2"
         x="23.816713"
         y="477.80865"
         style="font-style:normal;font-variant:normal;font-weight:normal;font-stretch:normal;font-size:133.333px;font-family:'Courier New';-inkscape-font-specification:'Courier New, Normal';font-variant-ligatures:normal;font-variant-caps:normal;font-variant-numeric:normal;font-variant-east-asian:normal;fill:#000000;fill-opacity:1;stroke:#000000;stroke-opacity:1;stroke-width:6;stroke-dasharray:none">LA32</tspan></text><g
       style="clip-rule:evenodd;fill-rule:evenodd;stroke-linejoin:round;stroke-miterlimit:2"
       id="g2"
       transform="matrix(0.94165521,0,0,0.94165521,20.586092,20.586246)"><g
         transform="matrix(0.818935,-0.818935,0.818935,0.818935,-83.9365,203.141)"
         id="g1">
        <g
   id="Search">
            <path
   d="M 167.582,287.681 C 101.564,283.702 49.176,228.827 49.176,161.813 c 0,-69.596 56.503,-126.099 126.099,-126.099 69.596,0 126.099,56.503 126.099,126.099 0,67.014 -52.389,121.889 -118.407,125.868 v 31 h 3.297 c 6.065,0 10.989,4.924 10.989,10.989 v 125.275 c 0,6.065 -4.924,10.989 -10.989,10.989 h -21.978 c -6.065,0 -10.989,-4.924 -10.989,-10.989 V 329.67 c 0,-6.065 4.924,-10.989 10.989,-10.989 h 3.296 z m 7.693,-226.692 c 55.646,0 100.824,45.178 100.824,100.824 0,55.647 -45.178,100.824 -100.824,100.824 -55.647,0 -100.824,-45.177 -100.824,-100.824 0,-55.646 45.177,-100.824 100.824,-100.824 z m 84.602,97.914 c -0.772,-22.438 -10.425,-43.65 -26.837,-58.97 -34.153,-31.882 -87.764,-30.038 -119.646,4.115 -2.754,2.95 -2.594,7.581 0.356,10.335 2.95,2.754 7.581,2.595 10.335,-0.355 26.373,-28.252 70.723,-29.778 98.975,-3.404 13.576,12.673 21.562,30.221 22.201,48.782 0.138,4.033 3.526,7.195 7.559,7.057 4.034,-0.139 7.196,-3.526 7.057,-7.56 z"
   style="fill:#000000;fill-opacity:1"
   id="path1" />
        </g>
    </g></g></g><metadata
     id="metadata2"><rdf:RDF><cc:Work
         rdf:about=""><dc:title>la32r-instr-stats icon</dc:title></cc:Work></rdf:RDF></metadata></svg>
