<svg xmlns="http://www.w3.org/2000/svg" version="1.1" xmlns:xlink="http://www.w3.org/1999/xlink" xmlns:svgjs="http://svgjs.dev/svgjs" width="512" height="512"><svg version="1.1" viewBox="0 0 512 512" xmlns="http://www.w3.org/2000/svg" xmlns:xlink="http://www.w3.org/1999/xlink"><title>la32r-instr-stats icon</title><path d="m-1.028 0h512v512h-512z" fill="#ff0" stroke-width=".3" style="--darkreader-inline-fill: var(--darkreader-background-ffff00, #999900);" data-darkreader-inline-fill=""></path><path d="m54.35 407.1v65.23h36.33v-21.74q0-1.953 0.7812-2.799t2.018-0.8464q1.172 0 1.953 0.8464 0.7812 0.7812 0.7812 2.799v27.21h-60.42q-1.953 0-2.799-0.7812-0.8464-0.7812-0.8464-1.953 0-1.237 0.8464-1.953 0.8464-0.7812 2.799-0.7812h13.02v-65.23h-13.02q-1.953 0-2.799-0.7161-0.8464-0.7812-0.8464-2.018 0-1.237 0.8464-1.953 0.8464-0.7812 2.799-0.7812h31.58q1.953 0 2.799 0.7812 0.8464 0.7162 0.8464 1.953 0 1.237-0.8464 2.018-0.8464 0.7161-2.799 0.7161zm107.5 45.25h-35.94l-7.357 19.99h10.48q1.953 0 2.799 0.7812 0.8464 0.7161 0.8464 1.953 0 1.172-0.8464 1.953-0.8464 0.7812-2.799 0.7812h-20.44q-1.953 0-2.799-0.7812-0.8464-0.7812-0.8464-1.953 0-1.237 0.8464-1.953 0.8464-0.7812 2.799-0.7812h4.232l24.15-65.23h-16.15q-1.953 0-2.799-0.7161-0.8464-0.7812-0.8464-2.018 0-1.237 0.8464-1.953 0.8464-0.7812 2.799-0.7812h27.54l26.69 70.7h4.232q1.953 0 2.799 0.7812 0.8464 0.7161 0.8464 1.953 0 1.172-0.8464 1.953-0.8464 0.7812-2.799 0.7812h-20.38q-2.018 0-2.865-0.7812-0.8464-0.7812-0.8464-1.953 0-1.237 0.8464-1.953 0.8464-0.7812 2.865-0.7812h10.42zm-2.083-5.469-15.1-39.78h-2.018l-14.65 39.78zm75.33-13.54q7.552 3.385 11.52 9.31 3.971 5.859 3.971 12.24 0 9.831-8.008 17.38-7.943 7.487-19.92 7.487-7.031 0-14.58-2.995-7.552-2.995-10.55-6.12-0.9766-1.042-0.9766-2.214 0-1.042 0.7161-1.823 0.7812-0.7812 1.823-0.7812 1.042 0 2.344 0.9766 10.09 7.487 21.35 7.487 9.505 0 15.89-5.924 6.445-5.99 6.445-13.28 0-4.883-3.19-9.57-3.125-4.687-9.049-7.357-5.924-2.734-11.98-2.734-1.953 0-2.799-0.7161-0.8464-0.7812-0.8464-2.018 0-1.172 0.7812-1.953 0.8464-0.7812 2.474-0.7812l4.687 0.0651q7.357 0 12.11-4.492 4.818-4.492 4.818-10.42 0-6.12-5.013-10.81t-13.09-4.687q-5.664 0-10.42 1.953-4.753 1.953-7.617 5.339-1.042 1.302-1.628 1.628-0.5208 0.2604-1.237 0.2604-1.107 0-1.888-0.7161-0.7812-0.7812-0.7812-1.823 0-2.604 5.664-6.576 7.878-5.534 17.9-5.534 10.35 0 16.99 6.25 6.641 6.185 6.641 14.78 0 5.469-3.19 10.35-3.19 4.883-9.375 7.812zm45.25 39h41.99v-2.148q0-1.953 0.7812-2.799 0.7812-0.8464 2.018-0.8464 1.172 0 1.953 0.8464 0.7812 0.8464 0.7812 2.799v7.617h-52.86v-8.073q16.67-14.97 32.42-30.47 7.357-7.227 10.09-10.61 2.734-3.385 3.711-5.924 1.042-2.604 1.042-5.208 0-7.031-5.664-12.43-5.664-5.404-13.67-5.404-7.161 0-12.7 4.102-5.534 4.102-7.161 10.16-0.3906 1.562-0.9766 2.018-0.7812 0.651-1.823 0.651-1.107 0-1.888-0.7161-0.7162-0.7812-0.7162-1.823 0-3.125 3.385-8.464 3.451-5.339 9.44-8.398 6.055-3.06 12.37-3.06 10.22 0 17.58 7.096t7.357 16.08q0 3.776-1.237 6.966-1.237 3.125-4.232 6.901-2.93 3.711-10.61 11.26-19.27 19.01-31.38 29.49z" stroke="#000" stroke-width="6" aria-label="LA32" style="--darkreader-inline-stroke: var(--darkreader-text-000000, #e8e6e3);" data-darkreader-inline-stroke=""></path><g transform="matrix(.9417 0 0 .9417 20.59 20.59)" clip-rule="evenodd" fill-rule="evenodd" stroke-linejoin="round" stroke-miterlimit="2"><g transform="matrix(.8189 -.8189 .8189 .8189 -83.94 203.1)"><path d="m167.6 287.7c-66.02-3.979-118.4-58.85-118.4-125.9 0-69.6 56.5-126.1 126.1-126.1s126.1 56.5 126.1 126.1c0 67.01-52.39 121.9-118.4 125.9v31h3.297c6.065 0 10.99 4.924 10.99 10.99v125.3c0 6.065-4.924 10.99-10.99 10.99h-21.98c-6.065 0-10.99-4.924-10.99-10.99v-125.3c0-6.065 4.924-10.99 10.99-10.99h3.296zm7.693-226.7c55.65 0 100.8 45.18 100.8 100.8 0 55.65-45.18 100.8-100.8 100.8-55.65 0-100.8-45.18-100.8-100.8 0-55.65 45.18-100.8 100.8-100.8zm84.6 97.91c-0.772-22.44-10.42-43.65-26.84-58.97-34.15-31.88-87.76-30.04-119.6 4.115-2.754 2.95-2.594 7.581 0.356 10.34s7.581 2.595 10.34-0.355c26.37-28.25 70.72-29.78 98.98-3.404 13.58 12.67 21.56 30.22 22.2 48.78 0.138 4.033 3.526 7.195 7.559 7.057 4.034-0.139 7.196-3.526 7.057-7.56z"></path></g></g></svg><style>@media (prefers-color-scheme: light) { :root { filter: none; } }
@media (prefers-color-scheme: dark) { :root { filter: none; } }
</style></svg>